<?xml version="1.0" encoding="utf-8"?>
<!-- Generator: Adobe Illustrator 26.0.1, SVG Export Plug-In . SVG Version: 6.00 Build 0)  -->
<svg version="1.1" id="Layer_1" xmlns="http://www.w3.org/2000/svg" xmlns:xlink="http://www.w3.org/1999/xlink" x="0px" y="0px"
	 viewBox="0 0 600 600" style="enable-background:new 0 0 600 600;" xml:space="preserve">
<style type="text/css">
	.st0{fill:#22205F;}
	.st1{fill:#30B6E9;}
	.st2{fill:url(#SVGID_1_);}
</style>
<g>
	<g>
		<g>
			<path class="st0" d="M520.36,430.25c-29.02-39.4-60.08-58.79-85.01-68.93c-1.67-0.67-3.32-1.31-4.99-1.93
				c-2.43-0.9-4.57-1.63-7.25-2.53c-18.92-6.39-36.04-8.97-49.53-9.9c-4.39-0.31-8.25-3.05-10.02-7.09
				c-14.33-32.61-28.68-65.22-43.02-97.84c-1.11-2.52-0.94-5.42,0.46-7.79c1.97-3.34,3.96-6.7,5.95-10.09c0.01,0,0.01,0,0.02,0
				l1.67-2.7l45.14-73.12c3.56-5.76,12.09-5.31,15.01,0.81l133.65,279.95C523.03,430.38,521.21,431.39,520.36,430.25z"/>
		</g>
		<path class="st1" d="M370.49,116.87c4.26,0,6.87,4.67,4.63,8.3l-6.96,11.26l-53.39,86.47l-1.67,2.7c-0.01,0-0.01,0-0.02,0
			c-2.75,4.67-5.48,9.29-8.18,13.87c-74.54,126.2-131.04,216.65-145.68,235.38c-3.77,4.82-13.22,16.55-28.4,20.36
			c-11.55,2.9-24.28,1.67-35.47-4.37l-46.64-25.2c-4.47-2.41-6-7.76-3.42-11.94l197.08-319.21c6.73-10.91,19.17-17.62,32.63-17.62
			H370.49z"/>
	</g>
	<linearGradient id="SVGID_1_" gradientUnits="userSpaceOnUse" x1="239.5151" y1="368.6753" x2="567.4899" y2="476.4971">
		<stop  offset="0.2196" style="stop-color:#00AEEF"/>
		<stop  offset="0.3463" style="stop-color:#007FB6"/>
		<stop  offset="0.4856" style="stop-color:#00578C"/>
		<stop  offset="0.6012" style="stop-color:#0D3B72"/>
		<stop  offset="0.687" style="stop-color:#1F2864"/>
		<stop  offset="0.7335" style="stop-color:#22205F"/>
	</linearGradient>
	<path class="st2" d="M524.79,450.29c4.16,6.14,1.77,14.53-5,17.53c-22.05,9.8-65.43,28.99-65.43,28.99
		c-8.26,3.64-17.96,0.32-22.2-7.64c-0.64-1.2-1.14-2.05-1.25-2.32c-0.94-2.17-40-81.82-111.29-93.39
		c-47.71-7.74-87.29,18.68-100,27.99c19-20.04,64.27-61.65,127.79-66.17c4.6-0.33,17.81-1.06,34.75,1.23
		c62.54,8.44,104.67,48.34,122.71,68.36c3.64,4.04,7.19,8.35,7.19,8.35C516.99,439.25,521.21,445,524.79,450.29z"/>
</g>
</svg>
